<svg width="127" height="24" viewBox="0 0 127 24" fill="none" xmlns="http://www.w3.org/2000/svg">
<path d="M115 2.25C113.072 2.25 111.187 2.82183 109.583 3.89317C107.98 4.96451 106.73 6.48726 105.992 8.26884C105.254 10.0504 105.061 12.0108 105.437 13.9021C105.814 15.7934 106.742 17.5307 108.106 18.8943C109.469 20.2579 111.207 21.1865 113.098 21.5627C114.989 21.9389 116.95 21.7458 118.731 21.0078C120.513 20.2699 122.035 19.0202 123.107 17.4168C124.178 15.8134 124.75 13.9284 124.75 12C124.747 9.41506 123.719 6.93684 121.891 5.10901C120.063 3.28118 117.585 2.25299 115 2.25ZM118.416 12.624L113.916 15.624C113.803 15.6995 113.672 15.7428 113.536 15.7494C113.401 15.756 113.266 15.7257 113.146 15.6616C113.026 15.5975 112.926 15.5021 112.856 15.3856C112.787 15.2691 112.75 15.1358 112.75 15V9C112.75 8.8642 112.787 8.73092 112.856 8.6144C112.926 8.49787 113.026 8.40248 113.146 8.3384C113.266 8.27433 113.401 8.24398 113.536 8.2506C113.672 8.25721 113.803 8.30055 113.916 8.37598L118.416 11.376C118.519 11.4445 118.603 11.5373 118.661 11.6461C118.72 11.755 118.75 11.8765 118.75 12C118.75 12.1235 118.72 12.245 118.661 12.3539C118.603 12.4627 118.519 12.5555 118.416 12.624Z" fill="white"/>
<path d="M2.36648 6.81818H0.34304L3.92756 17H6.20455L9.79403 6.81818H7.76562L5.12074 14.8324H5.01634L2.36648 6.81818ZM10.7756 17H12.5753V9.36364H10.7756V17ZM11.6804 8.27983C12.2521 8.27983 12.7195 7.84233 12.7195 7.3054C12.7195 6.76349 12.2521 6.32599 11.6804 6.32599C11.1037 6.32599 10.6364 6.76349 10.6364 7.3054C10.6364 7.84233 11.1037 8.27983 11.6804 8.27983ZM17.5266 17.1491C19.3065 17.1491 20.5295 16.2791 20.8477 14.9517L19.1673 14.7628C18.9237 15.4091 18.3271 15.7472 17.5515 15.7472C16.3882 15.7472 15.6176 14.9815 15.6026 13.674H20.9222V13.1222C20.9222 10.4425 19.3114 9.2642 17.4322 9.2642C15.2447 9.2642 13.8178 10.87 13.8178 13.2266C13.8178 15.6229 15.2248 17.1491 17.5266 17.1491ZM15.6076 12.4609C15.6623 11.4865 16.3832 10.6662 17.457 10.6662C18.4911 10.6662 19.1872 11.4219 19.1971 12.4609H15.6076ZM23.6998 17H25.579L27.0109 11.8395H27.1153L28.5471 17H30.4214L32.584 9.36364H30.7445L29.4221 14.7031H29.3475L27.9753 9.36364H26.1607L24.7886 14.733H24.7189L23.3766 9.36364H21.5421L23.6998 17ZM36.8328 17H38.6772V13.2713H40.5565L42.5551 17H44.6133L42.4109 12.9631C43.6091 12.4808 44.2404 11.4567 44.2404 10.0746C44.2404 8.13068 42.9876 6.81818 40.651 6.81818H36.8328V17ZM38.6772 11.7401V8.35938H40.3676C41.7447 8.35938 42.3612 8.99077 42.3612 10.0746C42.3612 11.1584 41.7447 11.7401 40.3775 11.7401H38.6772ZM48.85 17.1491C50.6298 17.1491 51.8528 16.2791 52.171 14.9517L50.4906 14.7628C50.247 15.4091 49.6504 15.7472 48.8749 15.7472C47.7115 15.7472 46.9409 14.9815 46.926 13.674H52.2456V13.1222C52.2456 10.4425 50.6348 9.2642 48.7555 9.2642C46.568 9.2642 45.1412 10.87 45.1412 13.2266C45.1412 15.6229 46.5482 17.1491 48.85 17.1491ZM46.931 12.4609C46.9857 11.4865 47.7065 10.6662 48.7804 10.6662C49.8145 10.6662 50.5105 11.4219 50.5205 12.4609H46.931ZM56.8191 17.1491C58.7382 17.1491 59.9612 16.0107 60.0904 14.3899H58.3703C58.2161 15.2102 57.6245 15.6825 56.834 15.6825C55.7105 15.6825 54.9846 14.7429 54.9846 13.1818C54.9846 11.6406 55.7254 10.7159 56.834 10.7159C57.6991 10.7159 58.2311 11.2727 58.3703 12.0085H60.0904C59.9661 10.353 58.6735 9.2642 56.8092 9.2642C54.572 9.2642 53.16 10.88 53.16 13.2116C53.16 15.5234 54.5372 17.1491 56.8191 17.1491ZM61.2882 17H63.0879V9.36364H61.2882V17ZM62.1931 8.27983C62.7648 8.27983 63.2321 7.84233 63.2321 7.3054C63.2321 6.76349 62.7648 6.32599 62.1931 6.32599C61.6164 6.32599 61.149 6.76349 61.149 7.3054C61.149 7.84233 61.6164 8.27983 62.1931 8.27983ZM64.6586 19.8636H66.4583V15.7969H66.5329C66.8163 16.3537 67.4079 17.1342 68.7204 17.1342C70.5201 17.1342 71.8674 15.7074 71.8674 13.1918C71.8674 10.6463 70.4804 9.2642 68.7154 9.2642C67.3681 9.2642 66.8063 10.0746 66.5329 10.6264H66.4285V9.36364H64.6586V19.8636ZM66.4235 13.1818C66.4235 11.7003 67.0599 10.7408 68.2183 10.7408C69.4164 10.7408 70.0329 11.7599 70.0329 13.1818C70.0329 14.6136 69.4065 15.6577 68.2183 15.6577C67.0698 15.6577 66.4235 14.6634 66.4235 13.1818ZM76.5093 17.1491C78.2891 17.1491 79.5121 16.2791 79.8303 14.9517L78.1499 14.7628C77.9063 15.4091 77.3097 15.7472 76.5342 15.7472C75.3708 15.7472 74.6002 14.9815 74.5853 13.674H79.9049V13.1222C79.9049 10.4425 78.2941 9.2642 76.4148 9.2642C74.2273 9.2642 72.8005 10.87 72.8005 13.2266C72.8005 15.6229 74.2075 17.1491 76.5093 17.1491ZM74.5903 12.4609C74.645 11.4865 75.3658 10.6662 76.4397 10.6662C77.4738 10.6662 78.1698 11.4219 78.1798 12.4609H74.5903ZM87.183 11.3821C86.9344 10.0895 85.9003 9.2642 84.1105 9.2642C82.271 9.2642 81.0182 10.169 81.0232 11.581C81.0182 12.6946 81.7043 13.4304 83.1709 13.7337L84.4734 14.0071C85.1744 14.1612 85.5026 14.4446 85.5026 14.8771C85.5026 15.3991 84.9358 15.7919 84.0807 15.7919C83.2554 15.7919 82.7185 15.4339 82.5644 14.7479L80.8094 14.9169C81.0331 16.3189 82.2114 17.1491 84.0857 17.1491C85.9947 17.1491 87.3421 16.1598 87.347 14.7131C87.3421 13.6243 86.6411 12.9581 85.1993 12.6449L83.8967 12.3665C83.1212 12.1925 82.8129 11.924 82.8179 11.4815C82.8129 10.9645 83.3847 10.6065 84.1354 10.6065C84.9656 10.6065 85.4031 11.0589 85.5423 11.5611L87.183 11.3821Z" fill="white"/>
</svg>
